<svg xmlns="http://www.w3.org/2000/svg" width="404" height="217" fill="none" viewBox="0 0 404 217"><g clip-path="url(#clip0_2467_37194)"><rect width="402.154" height="216.254" x=".922" y=".373" fill="#fff" rx="8"/><rect width="402.154" height="216.254" x=".922" y=".373" fill="#000" fill-opacity=".02" rx="8"/><rect width="361.109" height="232.808" x="45.301" y="36.254" fill="#fff" rx="12"/><rect width="360.109" height="231.808" x="45.801" y="36.754" stroke="#000" stroke-opacity=".08" rx="11.5"/><g filter="url(#filter0_d_2467_37194)"><rect width="279" height="90" x="55.127" y="77" fill="#000" rx="8"/><rect width="279" height="90" x="55.127" y="77" fill="#fff" fill-opacity=".16" rx="8"/><rect width="132.836" height="16" x="67.127" y="89" fill="#fff" opacity=".2" rx="8"/><rect width="206.502" height="16" x="67.127" y="107" fill="#fff" opacity=".1" rx="8"/><rect width="54" height="16" x="190.127" y="139" fill="#fff" fill-opacity=".04" rx="4"/><rect width="53" height="15" x="190.627" y="139.5" stroke="#fff" stroke-opacity=".08" rx="3.5"/><g clip-path="url(#clip1_2467_37194)"><rect width="70" height="16" x="252.127" y="139" fill="#fff" fill-opacity=".04" rx="4"/></g><rect width="69" height="15" x="252.627" y="139.5" stroke="#fff" stroke-opacity=".08" rx="3.5"/><rect width="278" height="89" x="55.627" y="77.5" stroke="#fff" stroke-opacity=".08" rx="7.5"/></g><circle cx="62.06" cy="53.247" r="6.934" fill="#EB6C5F"/><circle cx="82.066" cy="53.247" r="6.934" fill="#F7BC52"/><circle cx="102.072" cy="53.247" r="6.934" fill="#5DC25A"/></g><rect width="401.154" height="215.254" x="1.422" y=".873" stroke="#000" stroke-opacity=".08" rx="7.5"/><defs><filter id="filter0_d_2467_37194" width="355" height="166" x="17.127" y="64" color-interpolation-filters="sRGB" filterUnits="userSpaceOnUse"><feFlood flood-opacity="0" result="BackgroundImageFix"/><feColorMatrix in="SourceAlpha" result="hardAlpha" type="matrix" values="0 0 0 0 0 0 0 0 0 0 0 0 0 0 0 0 0 0 127 0"/><feMorphology in="SourceAlpha" operator="erode" radius="12" result="effect1_dropShadow_2467_37194"/><feOffset dy="25"/><feGaussianBlur stdDeviation="25"/><feColorMatrix type="matrix" values="0 0 0 0 0 0 0 0 0 0 0 0 0 0 0 0 0 0 0.25 0"/><feBlend in2="BackgroundImageFix" mode="normal" result="effect1_dropShadow_2467_37194"/><feBlend in="SourceGraphic" in2="effect1_dropShadow_2467_37194" mode="normal" result="shape"/></filter><clipPath id="clip0_2467_37194"><rect width="402.154" height="216.254" x=".922" y=".373" fill="#fff" rx="8"/></clipPath><clipPath id="clip1_2467_37194"><rect width="70" height="16" x="252.127" y="139" fill="#fff" rx="4"/></clipPath></defs></svg>